%TF.GenerationSoftware,KiCad,Pcbnew,10.0.0*%
%TF.CreationDate,2026-04-11T21:50:40-04:00*%
%TF.ProjectId,555 LED Chaser,35353520-4c45-4442-9043-68617365722e,rev?*%
%TF.SameCoordinates,Original*%
%TF.FileFunction,Profile,NP*%
%FSLAX46Y46*%
G04 Gerber Fmt 4.6, Leading zero omitted, Abs format (unit mm)*
G04 Created by KiCad (PCBNEW 10.0.0) date 2026-04-11 21:50:40*
%MOMM*%
%LPD*%
G01*
G04 APERTURE LIST*
%TA.AperFunction,Profile*%
%ADD10C,0.013793*%
%TD*%
G04 APERTURE END LIST*
D10*
X103796956Y-90604726D02*
G75*
G02*
X103840554Y-90406643I1813344J-295274D01*
G01*
X103828861Y-90675705D02*
G75*
G02*
X103797009Y-90604735I38039J59705D01*
G01*
X103840559Y-90406645D02*
G75*
G02*
X107289037Y-82462895I30398241J-8475855D01*
G01*
X103922722Y-90695016D02*
G75*
G02*
X103828869Y-90675692I-21322J134016D01*
G01*
X103922722Y-90695016D02*
X104212343Y-90642140D01*
X104212343Y-90642140D02*
X109003078Y-89869418D01*
X107289027Y-82462889D02*
G75*
G02*
X112743593Y-75831877I26058773J-15876611D01*
G01*
X109003078Y-89869418D02*
G75*
G02*
X113502707Y-89578425I4998722J-42360882D01*
G01*
X112743599Y-75831883D02*
G75*
G02*
X120120692Y-70699635I22804201J-24910717D01*
G01*
X113502707Y-89578429D02*
G75*
G02*
X117497000Y-89766022I399093J-34120171D01*
G01*
X117497000Y-89766025D02*
G75*
G02*
X120743521Y-90448714I-1721300J-16246375D01*
G01*
X120120687Y-70699626D02*
G75*
G02*
X129224066Y-67169586I21384813J-41644774D01*
G01*
X120743519Y-90448719D02*
G75*
G02*
X123147946Y-91496057I-3922519J-12288781D01*
G01*
X123147943Y-91496062D02*
G75*
G02*
X125116257Y-92953437I-4829643J-8580738D01*
G01*
X125116268Y-92953426D02*
G75*
G02*
X126561766Y-94757887I-6001068J-6288474D01*
G01*
X126561773Y-94757883D02*
G75*
G02*
X127428586Y-96828313I-6630273J-3992517D01*
G01*
X127209429Y-72539433D02*
G75*
G02*
X128041307Y-70246561I5456871J-682467D01*
G01*
X127428578Y-96828315D02*
X127509256Y-97176422D01*
X127509256Y-97176422D02*
X127577410Y-97542630D01*
X127527929Y-74650892D02*
G75*
G02*
X127209449Y-72539435I3594971J1621992D01*
G01*
X127577410Y-97542630D02*
X127625222Y-97875247D01*
X127625222Y-97875247D02*
G75*
G02*
X127639309Y-98105767I-1881222J-230653D01*
G01*
X127639313Y-98105767D02*
X127639313Y-98561230D01*
X127639313Y-98561230D02*
X128570244Y-98094117D01*
X128041311Y-70246563D02*
G75*
G02*
X130016288Y-67803654I12230189J-7867737D01*
G01*
X128570244Y-98094117D02*
G75*
G02*
X130337883Y-97323582I8012656J-15968583D01*
G01*
X128920350Y-76566565D02*
G75*
G02*
X127527921Y-74650896I3917350J4311265D01*
G01*
X129867697Y-66996296D02*
X129224065Y-67169582D01*
X129869489Y-77280477D02*
G75*
G02*
X128920355Y-76566560I3364411J5460777D01*
G01*
X130016286Y-67803652D02*
X130433552Y-67380602D01*
X130337882Y-97323581D02*
G75*
G02*
X132037733Y-96820515I4470318J-11981719D01*
G01*
X130429984Y-66848616D02*
X129867697Y-66996296D01*
X130433552Y-67380602D02*
X130764314Y-67026595D01*
X130764314Y-67026595D02*
X131018648Y-66739181D01*
X130913228Y-66724358D02*
X130429984Y-66848616D01*
X130913228Y-66724358D02*
G75*
G02*
X131003506Y-66709258I134372J-525942D01*
G01*
X131003506Y-66709262D02*
G75*
G02*
X131018588Y-66739130I1394J-18038D01*
G01*
X131261998Y-78065122D02*
X129869489Y-77280477D01*
X132037734Y-96820520D02*
G75*
G02*
X133771021Y-96562089I2700466J-12170180D01*
G01*
X132841207Y-78801210D02*
X131261998Y-78065122D01*
X133771021Y-96562088D02*
G75*
G02*
X135638429Y-96525705I1246079J-16014712D01*
G01*
X134397177Y-79376866D02*
G75*
G02*
X132841206Y-78801212I5772923J17994666D01*
G01*
X135638429Y-96525708D02*
G75*
G02*
X137485576Y-96706280I-611229J-15790392D01*
G01*
X136509665Y-79973659D02*
X134397177Y-79376866D01*
X137485576Y-96706283D02*
G75*
G02*
X139179927Y-97098595I-1898176J-12053017D01*
G01*
X139029272Y-80533180D02*
X136509665Y-79973659D01*
X139179925Y-97098601D02*
G75*
G02*
X140880996Y-97750637I-3996325J-12970799D01*
G01*
X140880995Y-97750639D02*
G75*
G02*
X142752766Y-98717597I-10139095J-21921661D01*
G01*
X141746136Y-81016768D02*
X139029272Y-80533180D01*
X142752767Y-98717596D02*
X144083083Y-99541951D01*
X144083083Y-99541951D02*
X145268829Y-100407540D01*
X144465036Y-81384493D02*
X141746136Y-81016768D01*
X145205076Y-81468787D02*
X144465036Y-81384493D01*
X145268829Y-100407540D02*
X146484928Y-101450661D01*
X145888665Y-81546716D02*
X145205076Y-81468787D01*
X146462012Y-81612133D02*
X145888665Y-81546716D01*
X146484928Y-101450661D02*
X147919646Y-102828839D01*
X146696902Y-81639031D02*
X146462012Y-81612133D01*
X146983361Y-81508637D02*
G75*
G02*
X146696899Y-81639055I-251561J172737D01*
G01*
X147189303Y-81060199D02*
G75*
G02*
X146983363Y-81508638I-1398203J370599D01*
G01*
X147435802Y-79988844D02*
X147189303Y-81060199D01*
X147919646Y-102828839D02*
X149252723Y-104241122D01*
X148270836Y-75698225D02*
X147435802Y-79988844D01*
X148586559Y-74098553D02*
X148270836Y-75698225D01*
X148866292Y-72751778D02*
X148586559Y-74098553D01*
X149122529Y-71560077D02*
X148866292Y-72751778D01*
X149122529Y-71560077D02*
G75*
G02*
X149164403Y-71526268I41871J-9023D01*
G01*
X149164403Y-71526275D02*
G75*
G02*
X149211898Y-71557674I-3J-51625D01*
G01*
X149252723Y-104241122D02*
X150628279Y-105859358D01*
X149541379Y-72336528D02*
X149211879Y-71557682D01*
X149907809Y-73227021D02*
X149541379Y-72336528D01*
X150326460Y-74284586D02*
X149907809Y-73227021D01*
X150628279Y-105859358D02*
X151847133Y-107432808D01*
X151402148Y-77042901D02*
X150326460Y-74284586D01*
X151847133Y-107432808D02*
G75*
G02*
X152668840Y-108678409I-11314233J-8357692D01*
G01*
X152668841Y-108678408D02*
X153040600Y-109312758D01*
X153040600Y-109312758D02*
X154059351Y-107719353D01*
X153353560Y-77042901D02*
X151402148Y-77042901D01*
X154059351Y-107719353D02*
X155248088Y-105939383D01*
X155248088Y-105939383D02*
X156353580Y-104452912D01*
X155304970Y-77042901D02*
X153353560Y-77042901D01*
X155489675Y-76525719D02*
X155304970Y-77042901D01*
X156223961Y-74502612D02*
X155489675Y-76525719D01*
X156353580Y-104452912D02*
X157499043Y-103100196D01*
X156824276Y-72925816D02*
X156223961Y-74502612D01*
X157340035Y-71622503D02*
X156824276Y-72925816D01*
X157340035Y-71622503D02*
G75*
G02*
X157426877Y-71593805I55465J-22097D01*
G01*
X157426860Y-71593832D02*
G75*
G02*
X157472197Y-71649109I-57960J-93768D01*
G01*
X157499043Y-103100196D02*
X158806051Y-101729824D01*
X157526855Y-71812278D02*
X157472207Y-71649105D01*
X157579061Y-72016917D02*
X157526855Y-71812278D01*
X157621304Y-72247275D02*
X157579061Y-72016917D01*
X157731760Y-72901499D02*
X157621304Y-72247275D01*
X158285731Y-75903646D02*
X157731760Y-72901499D01*
X158806051Y-101729824D02*
X160215851Y-100398762D01*
X158832540Y-78846253D02*
X158285731Y-75903646D01*
X159241924Y-81012126D02*
X158832540Y-78846253D01*
X159381218Y-81740333D02*
X159241924Y-81012126D01*
X160215851Y-100398762D02*
G75*
G02*
X161466634Y-99372963I12262349J-13676338D01*
G01*
X160646301Y-81659536D02*
X159381218Y-81740333D01*
X161466634Y-99372963D02*
G75*
G02*
X162716822Y-98527595I9374566J-12516637D01*
G01*
X162716823Y-98527596D02*
X164118032Y-97751316D01*
X164118032Y-97751316D02*
G75*
G02*
X167378698Y-96540783I7108268J-14149984D01*
G01*
X166446479Y-81075695D02*
X160646301Y-81659536D01*
X167378696Y-96540776D02*
G75*
G02*
X170704444Y-96131061I3321704J-13260224D01*
G01*
X170704444Y-96131052D02*
G75*
G02*
X174044056Y-96542341I-3844J-13795448D01*
G01*
X171031821Y-80115385D02*
G75*
G02*
X166446479Y-81075698I-9181121J32411085D01*
G01*
X174044056Y-96542340D02*
G75*
G02*
X177345542Y-97755082I-3982256J-15941260D01*
G01*
X174567150Y-78768711D02*
G75*
G02*
X171031823Y-80115392I-9406750J19380911D01*
G01*
X176519952Y-66763668D02*
G75*
G02*
X176524794Y-66727782I25948J14768D01*
G01*
X176519952Y-66763668D02*
X176656213Y-67000757D01*
X176524835Y-66727823D02*
G75*
G02*
X176653956Y-66697334I89265J-89377D01*
G01*
X176656213Y-67000757D02*
X176824318Y-67277013D01*
X176824318Y-67277013D02*
X177032148Y-67596885D01*
X177032148Y-67596885D02*
G75*
G02*
X177915304Y-69088018I-13709448J-9126815D01*
G01*
X177120614Y-76992836D02*
G75*
G02*
X174567157Y-78768725I-6928914J7239036D01*
G01*
X177345543Y-97755081D02*
X177790957Y-97981401D01*
X177790957Y-97981401D02*
X178227192Y-98215280D01*
X177915308Y-69088016D02*
G75*
G02*
X178515061Y-70487878I-8737508J-4571884D01*
G01*
X177921017Y-76106799D02*
G75*
G02*
X177120614Y-76992836I-6490317J5058499D01*
G01*
X178227192Y-98215280D02*
X178600884Y-98426314D01*
X178462238Y-75225807D02*
G75*
G02*
X177921016Y-76106798I-4218638J1984907D01*
G01*
X178515063Y-70487877D02*
G75*
G02*
X178846199Y-71833896I-7617063J-2587623D01*
G01*
X178524625Y-67324108D02*
X176653953Y-66697344D01*
X178600884Y-98426314D02*
G75*
G02*
X178814952Y-98564092I-1356684J-2343086D01*
G01*
X178783810Y-74270486D02*
G75*
G02*
X178462241Y-75225808I-4294810J913886D01*
G01*
X178814948Y-98564097D02*
X178964448Y-98667342D01*
X178846200Y-71833896D02*
G75*
G02*
X178922775Y-73162260I-6760500J-1056104D01*
G01*
X178922773Y-73162260D02*
G75*
G02*
X178783815Y-74270487I-6578673J262060D01*
G01*
X178964448Y-98667342D02*
X179100430Y-98754429D01*
X179100430Y-98754429D02*
X179215988Y-98823065D01*
X179255310Y-98833591D02*
G75*
G02*
X179216000Y-98823044I-10J78491D01*
G01*
X179281809Y-98810046D02*
G75*
G02*
X179255310Y-98833606I-26609J3246D01*
G01*
X179281809Y-98810046D02*
X179321775Y-98458848D01*
X179321775Y-98458848D02*
X179360509Y-98047022D01*
X179360509Y-98047022D02*
X179394656Y-97557878D01*
X179394656Y-97557878D02*
G75*
G02*
X180326358Y-94258339I8035944J-487822D01*
G01*
X180281495Y-67933847D02*
X178524625Y-67324108D01*
X180326347Y-94258333D02*
G75*
G02*
X182527039Y-91778086I6257853J-3336067D01*
G01*
X181633339Y-68447375D02*
X180281495Y-67933847D01*
X181633339Y-68447375D02*
G75*
G02*
X185613080Y-70284581I-16429139J-40817725D01*
G01*
X182527054Y-91778107D02*
G75*
G02*
X186071227Y-90188285I5964546J-8551293D01*
G01*
X185613082Y-70284577D02*
G75*
G02*
X189553839Y-72575833I-23858682J-45569323D01*
G01*
X186071229Y-90188294D02*
G75*
G02*
X190942642Y-89503158I6047671J-25339006D01*
G01*
X189553840Y-72575831D02*
G75*
G02*
X193064722Y-75066255I-25298140J-39384069D01*
G01*
X190942642Y-89503150D02*
G75*
G02*
X193188407Y-89505407I1098458J-24301450D01*
G01*
X193064722Y-75066255D02*
G75*
G02*
X195723199Y-77497846I-14249222J-18247845D01*
G01*
X193188407Y-89505409D02*
X195951732Y-89704697D01*
X195951732Y-89704697D02*
X198725401Y-90043658D01*
X197409805Y-79459454D02*
X195723198Y-77497847D01*
X197409805Y-79459454D02*
G75*
G02*
X198833909Y-81457665I-19631505J-15497746D01*
G01*
X198725401Y-90043658D02*
X201010501Y-90480926D01*
X198833909Y-81457665D02*
G75*
G02*
X200000005Y-83499998I-19295609J-12371135D01*
G01*
X200000000Y-83500000D02*
G75*
G02*
X200913679Y-85593688I-18220100J-9197400D01*
G01*
X201010501Y-90480926D02*
X201362723Y-90562121D01*
X201362723Y-90562121D02*
X201679226Y-90630942D01*
X201424060Y-87154241D02*
X200913682Y-85593687D01*
X201679226Y-90630942D02*
X201945890Y-90685657D01*
X201858221Y-88884248D02*
X201424060Y-87154241D01*
X202028154Y-90694523D02*
G75*
G02*
X201945890Y-90685655I7746J457823D01*
G01*
X202188223Y-90504666D02*
X201858221Y-88884248D01*
X202188223Y-90504666D02*
G75*
G02*
X202028155Y-90694485I-157323J-29734D01*
G01*
M02*
