M48
; DRILL file KiCad 10.0.0 date 2026-04-11T21:51:34
; FORMAT={-:-/ absolute / metric / decimal}
; #@! TF.CreationDate,2026-04-11T21:51:34-04:00
; #@! TF.GenerationSoftware,Kicad,Pcbnew,10.0.0
; #@! TF.FileFunction,Plated,1,2,PTH
FMAT,2
METRIC
; #@! TA.AperFunction,Plated,PTH,ViaDrill
T1C0.300
; #@! TA.AperFunction,Plated,PTH,ComponentDrill
T2C0.787
; #@! TA.AperFunction,Plated,PTH,ComponentDrill
T3C0.800
; #@! TA.AperFunction,Plated,PTH,ComponentDrill
T4C0.850
; #@! TA.AperFunction,Plated,PTH,ComponentDrill
T5C0.900
; #@! TA.AperFunction,Plated,PTH,ComponentDrill
T6C1.000
%
G90
G05
T1
X145.885Y-87.769
X146.928Y-82.685
X150.492Y-90.329
X181.919Y-85.245
X185.7Y-84.806
T2
X143.84Y-89.38
X143.84Y-97.0
X146.38Y-89.38
X146.38Y-97.0
X148.92Y-89.38
X148.92Y-97.0
X151.46Y-89.38
X151.46Y-97.0
X154.0Y-89.38
X154.0Y-97.0
X156.54Y-89.38
X156.54Y-97.0
X159.08Y-89.38
X159.08Y-97.0
X161.62Y-89.38
X161.62Y-97.0
T3
X133.46Y-90.0
X141.08Y-90.0
X144.0Y-85.0
X146.0Y-85.0
X149.19Y-99.5
X156.81Y-99.5
X165.42Y-84.0
X165.42Y-91.62
X167.96Y-84.0
X167.96Y-91.62
X170.5Y-84.0
X170.5Y-91.62
X173.04Y-84.0
X173.04Y-91.62
T4
X132.92Y-85.0
X135.46Y-85.0
X138.0Y-85.0
T5
X112.5Y-84.5
X115.04Y-84.5
X120.5Y-76.5
X121.5Y-83.5
X123.04Y-76.5
X124.04Y-83.5
X126.73Y-90.0
X129.27Y-90.0
X149.23Y-81.5
X151.77Y-81.5
X154.73Y-81.5
X157.27Y-81.5
X177.23Y-89.5
X179.77Y-89.5
X182.0Y-83.0
X182.96Y-76.0
X184.54Y-83.0
X185.5Y-76.0
X190.96Y-84.0
X193.5Y-84.0
T6
X135.725Y-94.0
X138.265Y-94.0
X150.5Y-86.0
X153.0Y-104.5
X155.5Y-86.0
M30
