%TF.GenerationSoftware,KiCad,Pcbnew,10.0.0*%
%TF.CreationDate,2026-04-11T21:50:39-04:00*%
%TF.ProjectId,555 LED Chaser,35353520-4c45-4442-9043-68617365722e,rev?*%
%TF.SameCoordinates,Original*%
%TF.FileFunction,Copper,L2,Bot*%
%TF.FilePolarity,Positive*%
%FSLAX46Y46*%
G04 Gerber Fmt 4.6, Leading zero omitted, Abs format (unit mm)*
G04 Created by KiCad (PCBNEW 10.0.0) date 2026-04-11 21:50:39*
%MOMM*%
%LPD*%
G01*
G04 APERTURE LIST*
G04 Aperture macros list*
%AMRoundRect*
0 Rectangle with rounded corners*
0 $1 Rounding radius*
0 $2 $3 $4 $5 $6 $7 $8 $9 X,Y pos of 4 corners*
0 Add a 4 corners polygon primitive as box body*
4,1,4,$2,$3,$4,$5,$6,$7,$8,$9,$2,$3,0*
0 Add four circle primitives for the rounded corners*
1,1,$1+$1,$2,$3*
1,1,$1+$1,$4,$5*
1,1,$1+$1,$6,$7*
1,1,$1+$1,$8,$9*
0 Add four rect primitives between the rounded corners*
20,1,$1+$1,$2,$3,$4,$5,0*
20,1,$1+$1,$4,$5,$6,$7,0*
20,1,$1+$1,$6,$7,$8,$9,0*
20,1,$1+$1,$8,$9,$2,$3,0*%
G04 Aperture macros list end*
%TA.AperFunction,ComponentPad*%
%ADD10C,1.800000*%
%TD*%
%TA.AperFunction,ComponentPad*%
%ADD11R,1.800000X1.800000*%
%TD*%
%TA.AperFunction,ComponentPad*%
%ADD12C,2.000000*%
%TD*%
%TA.AperFunction,ComponentPad*%
%ADD13C,1.295400*%
%TD*%
%TA.AperFunction,ComponentPad*%
%ADD14R,1.295400X1.295400*%
%TD*%
%TA.AperFunction,ComponentPad*%
%ADD15R,1.700000X1.700000*%
%TD*%
%TA.AperFunction,ComponentPad*%
%ADD16C,1.700000*%
%TD*%
%TA.AperFunction,ComponentPad*%
%ADD17C,1.600000*%
%TD*%
%TA.AperFunction,ComponentPad*%
%ADD18C,1.650000*%
%TD*%
%TA.AperFunction,ComponentPad*%
%ADD19RoundRect,0.412500X-0.412500X-0.412500X0.412500X-0.412500X0.412500X0.412500X-0.412500X0.412500X0*%
%TD*%
%TA.AperFunction,ComponentPad*%
%ADD20RoundRect,0.250000X0.550000X-0.550000X0.550000X0.550000X-0.550000X0.550000X-0.550000X-0.550000X0*%
%TD*%
%TA.AperFunction,ComponentPad*%
%ADD21RoundRect,0.250000X-0.550000X-0.550000X0.550000X-0.550000X0.550000X0.550000X-0.550000X0.550000X0*%
%TD*%
%TA.AperFunction,ViaPad*%
%ADD22C,0.600000*%
%TD*%
%TA.AperFunction,Conductor*%
%ADD23C,0.200000*%
%TD*%
G04 APERTURE END LIST*
D10*
%TO.P,D6,2,A_2*%
%TO.N,Net-(D6-A)*%
X129270000Y-90000000D03*
D11*
%TO.P,D6,1,K_1*%
%TO.N,Net-(D1-K)*%
X126730000Y-90000000D03*
%TD*%
D12*
%TO.P,C4,2*%
%TO.N,GND*%
X155500000Y-86000000D03*
%TO.P,C4,1*%
%TO.N,Net-(U1-CV)*%
X150500000Y-86000000D03*
%TD*%
D13*
%TO.P,U2,16,VDD_16*%
%TO.N,+5V*%
X161620000Y-97000000D03*
%TO.P,U2,15,Reset_15*%
%TO.N,GND*%
X159080000Y-97000000D03*
%TO.P,U2,14,CLK_14*%
%TO.N,/OUT*%
X156540000Y-97000000D03*
%TO.P,U2,13,CKEN_13*%
%TO.N,GND*%
X154000000Y-97000000D03*
%TO.P,U2,12,Cout_12*%
%TO.N,unconnected-(U2-Cout-Pad12)*%
X151460000Y-97000000D03*
%TO.P,U2,11,Q9_11*%
%TO.N,Net-(D1-A)*%
X148920000Y-97000000D03*
%TO.P,U2,10,Q4_10*%
%TO.N,Net-(D8-A)*%
X146380000Y-97000000D03*
%TO.P,U2,9,Q8_9*%
%TO.N,Net-(D5-A)*%
X143840000Y-97000000D03*
%TO.P,U2,8,VSS_8*%
%TO.N,GND*%
X143840000Y-89380000D03*
%TO.P,U2,7,Q3_7*%
%TO.N,Net-(D9-A)*%
X146380000Y-89380000D03*
%TO.P,U2,6,Q7_6*%
%TO.N,Net-(D6-A)*%
X148920000Y-89380000D03*
%TO.P,U2,5,Q6_5*%
%TO.N,Net-(D2-A)*%
X151460000Y-89380000D03*
%TO.P,U2,4,Q2_4*%
%TO.N,Net-(D10-A)*%
X154000000Y-89380000D03*
%TO.P,U2,3,Q0_3*%
%TO.N,Net-(D12-A)*%
X156540000Y-89380000D03*
%TO.P,U2,2,Q1_2*%
%TO.N,Net-(D11-A)*%
X159080000Y-89380000D03*
D14*
%TO.P,U2,1,Q5_1*%
%TO.N,Net-(D7-A)*%
X161620000Y-89380000D03*
%TD*%
D15*
%TO.P,J2,1,Pin_1_1*%
%TO.N,/OUT*%
X153000000Y-104500000D03*
%TD*%
D16*
%TO.P,J1,2,Pin_2_2*%
%TO.N,GND*%
X138265000Y-94000000D03*
D15*
%TO.P,J1,1,Pin_1_1*%
%TO.N,+5V*%
X135725000Y-94000000D03*
%TD*%
D17*
%TO.P,R1,2*%
%TO.N,Net-(U1-DIS)*%
X141080000Y-90000000D03*
%TO.P,R1,1*%
%TO.N,+5V*%
X133460000Y-90000000D03*
%TD*%
D18*
%TO.P,RV1,3,3_3*%
%TO.N,/TR*%
X138000000Y-85000000D03*
%TO.P,RV1,2,2_2*%
%TO.N,Net-(U1-DIS)*%
X135460000Y-85000000D03*
D19*
%TO.P,RV1,1,1_1*%
X132920000Y-85000000D03*
%TD*%
D17*
%TO.P,U1,8,VCC_8*%
%TO.N,+5V*%
X165420000Y-84000000D03*
%TO.P,U1,7,DIS_7*%
%TO.N,Net-(U1-DIS)*%
X167960000Y-84000000D03*
%TO.P,U1,6,THR_6*%
%TO.N,/TR*%
X170500000Y-84000000D03*
%TO.P,U1,5,CV_5*%
%TO.N,Net-(U1-CV)*%
X173040000Y-84000000D03*
%TO.P,U1,4,R_4*%
%TO.N,+5V*%
X173040000Y-91620000D03*
%TO.P,U1,3,Q_3*%
%TO.N,/OUT*%
X170500000Y-91620000D03*
%TO.P,U1,2,TR_2*%
%TO.N,/TR*%
X167960000Y-91620000D03*
D20*
%TO.P,U1,1,GND_1*%
%TO.N,GND*%
X165420000Y-91620000D03*
%TD*%
D17*
%TO.P,R4,2*%
%TO.N,GND*%
X156810000Y-99500000D03*
%TO.P,R4,1*%
%TO.N,Net-(D1-K)*%
X149190000Y-99500000D03*
%TD*%
D11*
%TO.P,D2,1,K_1*%
%TO.N,Net-(D1-K)*%
X112500000Y-84500000D03*
D10*
%TO.P,D2,2,A_2*%
%TO.N,Net-(D2-A)*%
X115040000Y-84500000D03*
%TD*%
D11*
%TO.P,D9,1,K_1*%
%TO.N,Net-(D1-K)*%
X182000000Y-83000000D03*
D10*
%TO.P,D9,2,A_2*%
%TO.N,Net-(D9-A)*%
X184540000Y-83000000D03*
%TD*%
D11*
%TO.P,D8,1,K_1*%
%TO.N,Net-(D1-K)*%
X190960000Y-84000000D03*
D10*
%TO.P,D8,2,A_2*%
%TO.N,Net-(D8-A)*%
X193500000Y-84000000D03*
%TD*%
D11*
%TO.P,D5,1,K_1*%
%TO.N,Net-(D1-K)*%
X121500000Y-83500000D03*
D10*
%TO.P,D5,2,A_2*%
%TO.N,Net-(D5-A)*%
X124040000Y-83500000D03*
%TD*%
D11*
%TO.P,D1,1,K_1*%
%TO.N,Net-(D1-K)*%
X120500000Y-76500000D03*
D10*
%TO.P,D1,2,A_2*%
%TO.N,Net-(D1-A)*%
X123040000Y-76500000D03*
%TD*%
D11*
%TO.P,D11,1,K_1*%
%TO.N,Net-(D1-K)*%
X154730000Y-81500000D03*
D10*
%TO.P,D11,2,A_2*%
%TO.N,Net-(D11-A)*%
X157270000Y-81500000D03*
%TD*%
D11*
%TO.P,D12,1,K_1*%
%TO.N,Net-(D1-K)*%
X149230000Y-81500000D03*
D10*
%TO.P,D12,2,A_2*%
%TO.N,Net-(D12-A)*%
X151770000Y-81500000D03*
%TD*%
D11*
%TO.P,D10,1,K_1*%
%TO.N,Net-(D1-K)*%
X182960000Y-76000000D03*
D10*
%TO.P,D10,2,A_2*%
%TO.N,Net-(D10-A)*%
X185500000Y-76000000D03*
%TD*%
D21*
%TO.P,C3,1*%
%TO.N,/TR*%
X144000000Y-85000000D03*
D17*
%TO.P,C3,2*%
%TO.N,GND*%
X146000000Y-85000000D03*
%TD*%
D11*
%TO.P,D7,1,K_1*%
%TO.N,Net-(D1-K)*%
X177230000Y-89500000D03*
D10*
%TO.P,D7,2,A_2*%
%TO.N,Net-(D7-A)*%
X179770000Y-89500000D03*
%TD*%
D22*
%TO.N,Net-(D1-A)*%
X146927800Y-82685500D03*
%TO.N,Net-(D9-A)*%
X145884600Y-87769100D03*
X185700100Y-84805900D03*
%TO.N,Net-(D10-A)*%
X181919400Y-85245500D03*
%TO.N,Net-(D1-K)*%
X150491800Y-90329400D03*
%TD*%
%TO.N,Net-(U1-DIS)*%
D23*
X136080000Y-85000000D02*
X135460000Y-85000000D01*
X141080000Y-90000000D02*
X136080000Y-85000000D01*
%TO.N,/TR*%
X170500000Y-89080000D02*
X170500000Y-84000000D01*
X167960000Y-91620000D02*
X170500000Y-89080000D01*
%TO.N,+5V*%
X133460000Y-90583300D02*
X133460000Y-90000000D01*
X135725000Y-92848300D02*
X133460000Y-90583300D01*
X135725000Y-94000000D02*
X135725000Y-92848300D01*
X162974800Y-86445200D02*
X165420000Y-84000000D01*
X162974800Y-95645200D02*
X162974800Y-86445200D01*
X161620000Y-97000000D02*
X162974800Y-95645200D01*
X171770000Y-90350000D02*
X173040000Y-91620000D01*
X171770000Y-83682900D02*
X171770000Y-90350000D01*
X170933900Y-82846800D02*
X171770000Y-83682900D01*
X166573200Y-82846800D02*
X170933900Y-82846800D01*
X165420000Y-84000000D02*
X166573200Y-82846800D01*
%TO.N,/OUT*%
X153000000Y-100540000D02*
X156540000Y-97000000D01*
X153000000Y-104500000D02*
X153000000Y-100540000D01*
%TO.N,Net-(D1-A)*%
X147650000Y-95730000D02*
X148920000Y-97000000D01*
X147650000Y-83407700D02*
X147650000Y-95730000D01*
X146927800Y-82685500D02*
X147650000Y-83407700D01*
%TO.N,Net-(D5-A)*%
X128549900Y-83500000D02*
X124040000Y-83500000D01*
X137111100Y-92061200D02*
X128549900Y-83500000D01*
X137111100Y-94501000D02*
X137111100Y-92061200D01*
X137947300Y-95337200D02*
X137111100Y-94501000D01*
X142177200Y-95337200D02*
X137947300Y-95337200D01*
X143840000Y-97000000D02*
X142177200Y-95337200D01*
%TO.N,Net-(D9-A)*%
X145884600Y-88884600D02*
X145884600Y-87769100D01*
X146380000Y-89380000D02*
X145884600Y-88884600D01*
X184540000Y-83645800D02*
X185700100Y-84805900D01*
X184540000Y-83000000D02*
X184540000Y-83645800D01*
%TO.N,Net-(D10-A)*%
X183270000Y-78230000D02*
X185500000Y-76000000D01*
X183270000Y-83980800D02*
X183270000Y-78230000D01*
X182005300Y-85245500D02*
X183270000Y-83980800D01*
X181919400Y-85245500D02*
X182005300Y-85245500D01*
X181919400Y-85245500D02*
X180732500Y-86432400D01*
X180732500Y-86432400D02*
X181919400Y-85245500D01*
%TO.N,Net-(D12-A)*%
X156875400Y-89044600D02*
X156540000Y-89380000D01*
X156875400Y-84451000D02*
X156875400Y-89044600D01*
X156000000Y-83575600D02*
X156875400Y-84451000D01*
X156000000Y-80477700D02*
X156000000Y-83575600D01*
X155798200Y-80275900D02*
X156000000Y-80477700D01*
X152994100Y-80275900D02*
X155798200Y-80275900D01*
X151770000Y-81500000D02*
X152994100Y-80275900D01*
%TO.N,Net-(D11-A)*%
X159080000Y-83310000D02*
X157270000Y-81500000D01*
X159080000Y-89380000D02*
X159080000Y-83310000D01*
%TO.N,GND*%
X139220000Y-94000000D02*
X143840000Y-89380000D01*
X138265000Y-94000000D02*
X139220000Y-94000000D01*
X155500000Y-86000000D02*
X155500000Y-95500000D01*
X155500000Y-95500000D02*
X154000000Y-97000000D01*
X158513200Y-97566800D02*
X159080000Y-97000000D01*
X158628200Y-97681800D02*
X158513200Y-97566800D01*
X156810000Y-99500000D02*
X158628200Y-97681800D01*
X156446300Y-95500000D02*
X155500000Y-95500000D01*
X158513200Y-97566800D02*
X156446300Y-95500000D01*
X160087400Y-98007400D02*
X159080000Y-97000000D01*
X161984700Y-98007400D02*
X160087400Y-98007400D01*
X165420000Y-94572100D02*
X161984700Y-98007400D01*
X165420000Y-91620000D02*
X165420000Y-94572100D01*
X143840000Y-87160000D02*
X143840000Y-89380000D01*
X146000000Y-85000000D02*
X143840000Y-87160000D01*
%TO.N,Net-(D1-K)*%
X122633400Y-84701700D02*
X121500000Y-84701700D01*
X126730000Y-88798300D02*
X122633400Y-84701700D01*
X126730000Y-90000000D02*
X126730000Y-88798300D01*
X121500000Y-83500000D02*
X121500000Y-84701700D01*
X181326600Y-84201700D02*
X182000000Y-84201700D01*
X177230000Y-88298300D02*
X181326600Y-84201700D01*
X177230000Y-89500000D02*
X177230000Y-88298300D01*
X182000000Y-83000000D02*
X182000000Y-84201700D01*
X150431700Y-81875600D02*
X150431700Y-81500000D01*
X151257800Y-82701700D02*
X150431700Y-81875600D01*
X152326600Y-82701700D02*
X151257800Y-82701700D01*
X153528300Y-81500000D02*
X152326600Y-82701700D01*
X154730000Y-81500000D02*
X153528300Y-81500000D01*
X149230000Y-81500000D02*
X150431700Y-81500000D01*
X149230000Y-81500000D02*
X149230000Y-82701700D01*
X121500000Y-78701700D02*
X120500000Y-77701700D01*
X121500000Y-83500000D02*
X121500000Y-78701700D01*
X120500000Y-76500000D02*
X120500000Y-77701700D01*
X149159300Y-82772400D02*
X149230000Y-82701700D01*
X149159300Y-88103900D02*
X149159300Y-82772400D01*
X149932800Y-88877400D02*
X149159300Y-88103900D01*
X149932800Y-90329400D02*
X149932800Y-88877400D01*
X149932800Y-90329400D02*
X150491800Y-90329400D01*
X149932800Y-98757200D02*
X149932800Y-90329400D01*
X149190000Y-99500000D02*
X149932800Y-98757200D01*
%TD*%
M02*
