%TF.GenerationSoftware,KiCad,Pcbnew,10.0.0*%
%TF.CreationDate,2026-04-11T21:50:39-04:00*%
%TF.ProjectId,555 LED Chaser,35353520-4c45-4442-9043-68617365722e,rev?*%
%TF.SameCoordinates,Original*%
%TF.FileFunction,Copper,L1,Top*%
%TF.FilePolarity,Positive*%
%FSLAX46Y46*%
G04 Gerber Fmt 4.6, Leading zero omitted, Abs format (unit mm)*
G04 Created by KiCad (PCBNEW 10.0.0) date 2026-04-11 21:50:39*
%MOMM*%
%LPD*%
G01*
G04 APERTURE LIST*
G04 Aperture macros list*
%AMRoundRect*
0 Rectangle with rounded corners*
0 $1 Rounding radius*
0 $2 $3 $4 $5 $6 $7 $8 $9 X,Y pos of 4 corners*
0 Add a 4 corners polygon primitive as box body*
4,1,4,$2,$3,$4,$5,$6,$7,$8,$9,$2,$3,0*
0 Add four circle primitives for the rounded corners*
1,1,$1+$1,$2,$3*
1,1,$1+$1,$4,$5*
1,1,$1+$1,$6,$7*
1,1,$1+$1,$8,$9*
0 Add four rect primitives between the rounded corners*
20,1,$1+$1,$2,$3,$4,$5,0*
20,1,$1+$1,$4,$5,$6,$7,0*
20,1,$1+$1,$6,$7,$8,$9,0*
20,1,$1+$1,$8,$9,$2,$3,0*%
G04 Aperture macros list end*
%TA.AperFunction,ComponentPad*%
%ADD10C,1.800000*%
%TD*%
%TA.AperFunction,ComponentPad*%
%ADD11R,1.800000X1.800000*%
%TD*%
%TA.AperFunction,ComponentPad*%
%ADD12C,2.000000*%
%TD*%
%TA.AperFunction,ComponentPad*%
%ADD13C,1.295400*%
%TD*%
%TA.AperFunction,ComponentPad*%
%ADD14R,1.295400X1.295400*%
%TD*%
%TA.AperFunction,ComponentPad*%
%ADD15R,1.700000X1.700000*%
%TD*%
%TA.AperFunction,ComponentPad*%
%ADD16C,1.700000*%
%TD*%
%TA.AperFunction,ComponentPad*%
%ADD17C,1.600000*%
%TD*%
%TA.AperFunction,ComponentPad*%
%ADD18C,1.650000*%
%TD*%
%TA.AperFunction,ComponentPad*%
%ADD19RoundRect,0.412500X-0.412500X-0.412500X0.412500X-0.412500X0.412500X0.412500X-0.412500X0.412500X0*%
%TD*%
%TA.AperFunction,ComponentPad*%
%ADD20RoundRect,0.250000X0.550000X-0.550000X0.550000X0.550000X-0.550000X0.550000X-0.550000X-0.550000X0*%
%TD*%
%TA.AperFunction,ComponentPad*%
%ADD21RoundRect,0.250000X-0.550000X-0.550000X0.550000X-0.550000X0.550000X0.550000X-0.550000X0.550000X0*%
%TD*%
%TA.AperFunction,ViaPad*%
%ADD22C,0.600000*%
%TD*%
%TA.AperFunction,Conductor*%
%ADD23C,0.200000*%
%TD*%
G04 APERTURE END LIST*
D10*
%TO.P,D6,2,A_2*%
%TO.N,Net-(D6-A)*%
X129270000Y-90000000D03*
D11*
%TO.P,D6,1,K_1*%
%TO.N,Net-(D1-K)*%
X126730000Y-90000000D03*
%TD*%
D12*
%TO.P,C4,2*%
%TO.N,GND*%
X155500000Y-86000000D03*
%TO.P,C4,1*%
%TO.N,Net-(U1-CV)*%
X150500000Y-86000000D03*
%TD*%
D13*
%TO.P,U2,16,VDD_16*%
%TO.N,+5V*%
X161620000Y-97000000D03*
%TO.P,U2,15,Reset_15*%
%TO.N,GND*%
X159080000Y-97000000D03*
%TO.P,U2,14,CLK_14*%
%TO.N,/OUT*%
X156540000Y-97000000D03*
%TO.P,U2,13,CKEN_13*%
%TO.N,GND*%
X154000000Y-97000000D03*
%TO.P,U2,12,Cout_12*%
%TO.N,unconnected-(U2-Cout-Pad12)*%
X151460000Y-97000000D03*
%TO.P,U2,11,Q9_11*%
%TO.N,Net-(D1-A)*%
X148920000Y-97000000D03*
%TO.P,U2,10,Q4_10*%
%TO.N,Net-(D8-A)*%
X146380000Y-97000000D03*
%TO.P,U2,9,Q8_9*%
%TO.N,Net-(D5-A)*%
X143840000Y-97000000D03*
%TO.P,U2,8,VSS_8*%
%TO.N,GND*%
X143840000Y-89380000D03*
%TO.P,U2,7,Q3_7*%
%TO.N,Net-(D9-A)*%
X146380000Y-89380000D03*
%TO.P,U2,6,Q7_6*%
%TO.N,Net-(D6-A)*%
X148920000Y-89380000D03*
%TO.P,U2,5,Q6_5*%
%TO.N,Net-(D2-A)*%
X151460000Y-89380000D03*
%TO.P,U2,4,Q2_4*%
%TO.N,Net-(D10-A)*%
X154000000Y-89380000D03*
%TO.P,U2,3,Q0_3*%
%TO.N,Net-(D12-A)*%
X156540000Y-89380000D03*
%TO.P,U2,2,Q1_2*%
%TO.N,Net-(D11-A)*%
X159080000Y-89380000D03*
D14*
%TO.P,U2,1,Q5_1*%
%TO.N,Net-(D7-A)*%
X161620000Y-89380000D03*
%TD*%
D15*
%TO.P,J2,1,Pin_1_1*%
%TO.N,/OUT*%
X153000000Y-104500000D03*
%TD*%
D16*
%TO.P,J1,2,Pin_2_2*%
%TO.N,GND*%
X138265000Y-94000000D03*
D15*
%TO.P,J1,1,Pin_1_1*%
%TO.N,+5V*%
X135725000Y-94000000D03*
%TD*%
D17*
%TO.P,R1,2*%
%TO.N,Net-(U1-DIS)*%
X141080000Y-90000000D03*
%TO.P,R1,1*%
%TO.N,+5V*%
X133460000Y-90000000D03*
%TD*%
D18*
%TO.P,RV1,3,3_3*%
%TO.N,/TR*%
X138000000Y-85000000D03*
%TO.P,RV1,2,2_2*%
%TO.N,Net-(U1-DIS)*%
X135460000Y-85000000D03*
D19*
%TO.P,RV1,1,1_1*%
X132920000Y-85000000D03*
%TD*%
D17*
%TO.P,U1,8,VCC_8*%
%TO.N,+5V*%
X165420000Y-84000000D03*
%TO.P,U1,7,DIS_7*%
%TO.N,Net-(U1-DIS)*%
X167960000Y-84000000D03*
%TO.P,U1,6,THR_6*%
%TO.N,/TR*%
X170500000Y-84000000D03*
%TO.P,U1,5,CV_5*%
%TO.N,Net-(U1-CV)*%
X173040000Y-84000000D03*
%TO.P,U1,4,R_4*%
%TO.N,+5V*%
X173040000Y-91620000D03*
%TO.P,U1,3,Q_3*%
%TO.N,/OUT*%
X170500000Y-91620000D03*
%TO.P,U1,2,TR_2*%
%TO.N,/TR*%
X167960000Y-91620000D03*
D20*
%TO.P,U1,1,GND_1*%
%TO.N,GND*%
X165420000Y-91620000D03*
%TD*%
D17*
%TO.P,R4,2*%
%TO.N,GND*%
X156810000Y-99500000D03*
%TO.P,R4,1*%
%TO.N,Net-(D1-K)*%
X149190000Y-99500000D03*
%TD*%
D11*
%TO.P,D2,1,K_1*%
%TO.N,Net-(D1-K)*%
X112500000Y-84500000D03*
D10*
%TO.P,D2,2,A_2*%
%TO.N,Net-(D2-A)*%
X115040000Y-84500000D03*
%TD*%
D11*
%TO.P,D9,1,K_1*%
%TO.N,Net-(D1-K)*%
X182000000Y-83000000D03*
D10*
%TO.P,D9,2,A_2*%
%TO.N,Net-(D9-A)*%
X184540000Y-83000000D03*
%TD*%
D11*
%TO.P,D8,1,K_1*%
%TO.N,Net-(D1-K)*%
X190960000Y-84000000D03*
D10*
%TO.P,D8,2,A_2*%
%TO.N,Net-(D8-A)*%
X193500000Y-84000000D03*
%TD*%
D11*
%TO.P,D5,1,K_1*%
%TO.N,Net-(D1-K)*%
X121500000Y-83500000D03*
D10*
%TO.P,D5,2,A_2*%
%TO.N,Net-(D5-A)*%
X124040000Y-83500000D03*
%TD*%
D11*
%TO.P,D1,1,K_1*%
%TO.N,Net-(D1-K)*%
X120500000Y-76500000D03*
D10*
%TO.P,D1,2,A_2*%
%TO.N,Net-(D1-A)*%
X123040000Y-76500000D03*
%TD*%
D11*
%TO.P,D11,1,K_1*%
%TO.N,Net-(D1-K)*%
X154730000Y-81500000D03*
D10*
%TO.P,D11,2,A_2*%
%TO.N,Net-(D11-A)*%
X157270000Y-81500000D03*
%TD*%
D11*
%TO.P,D12,1,K_1*%
%TO.N,Net-(D1-K)*%
X149230000Y-81500000D03*
D10*
%TO.P,D12,2,A_2*%
%TO.N,Net-(D12-A)*%
X151770000Y-81500000D03*
%TD*%
D11*
%TO.P,D10,1,K_1*%
%TO.N,Net-(D1-K)*%
X182960000Y-76000000D03*
D10*
%TO.P,D10,2,A_2*%
%TO.N,Net-(D10-A)*%
X185500000Y-76000000D03*
%TD*%
D21*
%TO.P,C3,1*%
%TO.N,/TR*%
X144000000Y-85000000D03*
D17*
%TO.P,C3,2*%
%TO.N,GND*%
X146000000Y-85000000D03*
%TD*%
D11*
%TO.P,D7,1,K_1*%
%TO.N,Net-(D1-K)*%
X177230000Y-89500000D03*
D10*
%TO.P,D7,2,A_2*%
%TO.N,Net-(D7-A)*%
X179770000Y-89500000D03*
%TD*%
D22*
%TO.N,Net-(D1-A)*%
X146927800Y-82685500D03*
%TO.N,Net-(D9-A)*%
X145884600Y-87769100D03*
X185700100Y-84805900D03*
%TO.N,Net-(D10-A)*%
X181919400Y-85245500D03*
%TO.N,Net-(D1-K)*%
X150491800Y-90329400D03*
%TD*%
%TO.N,+5V*%
D23*
X135725000Y-94000000D02*
X137225000Y-95500000D01*
X137225000Y-95500000D02*
X144324851Y-95500000D01*
X146387449Y-98347700D02*
X160272300Y-98347700D01*
X144324851Y-95500000D02*
X145432300Y-96607449D01*
X145432300Y-96607449D02*
X145432300Y-97392551D01*
X160272300Y-98347700D02*
X161620000Y-97000000D01*
X145432300Y-97392551D02*
X146387449Y-98347700D01*
%TO.N,Net-(U1-DIS)*%
X137122900Y-83337100D02*
X135460000Y-85000000D01*
X147806100Y-83337100D02*
X137122900Y-83337100D01*
X148244900Y-82898300D02*
X147806100Y-83337100D01*
X166858300Y-82898300D02*
X148244900Y-82898300D01*
X167960000Y-84000000D02*
X166858300Y-82898300D01*
X135460000Y-85000000D02*
X132920000Y-85000000D01*
%TO.N,/TR*%
X144000000Y-85000000D02*
X138000000Y-85000000D01*
X145106900Y-83893100D02*
X144000000Y-85000000D01*
X163225000Y-83893100D02*
X145106900Y-83893100D01*
X164457000Y-85125100D02*
X163225000Y-83893100D01*
X169374900Y-85125100D02*
X164457000Y-85125100D01*
X170500000Y-84000000D02*
X169374900Y-85125100D01*
%TO.N,/OUT*%
X167738900Y-94381100D02*
X170500000Y-91620000D01*
X159158900Y-94381100D02*
X167738900Y-94381100D01*
X156540000Y-97000000D02*
X159158900Y-94381100D01*
%TO.N,Net-(D1-A)*%
X129225500Y-82685500D02*
X146927800Y-82685500D01*
X123040000Y-76500000D02*
X129225500Y-82685500D01*
%TO.N,Net-(D9-A)*%
X185537900Y-84643700D02*
X185700100Y-84805900D01*
X179790500Y-84643700D02*
X185537900Y-84643700D01*
X178442300Y-85991900D02*
X179790500Y-84643700D01*
X157246700Y-85991900D02*
X178442300Y-85991900D01*
X157065200Y-86173400D02*
X157246700Y-85991900D01*
X157065200Y-86314800D02*
X157065200Y-86173400D01*
X155649800Y-87730200D02*
X157065200Y-86314800D01*
X155325500Y-87730200D02*
X155649800Y-87730200D01*
X155286600Y-87769100D02*
X155325500Y-87730200D01*
X145884600Y-87769100D02*
X155286600Y-87769100D01*
%TO.N,Net-(D6-A)*%
X130401400Y-91131400D02*
X129270000Y-90000000D01*
X147168600Y-91131400D02*
X130401400Y-91131400D01*
X148920000Y-89380000D02*
X147168600Y-91131400D01*
%TO.N,Net-(D10-A)*%
X180732500Y-86432400D02*
X181919400Y-85245500D01*
X157515600Y-86432400D02*
X180732500Y-86432400D01*
X154568000Y-89380000D02*
X157515600Y-86432400D01*
X154000000Y-89380000D02*
X154568000Y-89380000D01*
X181919400Y-85245500D02*
X180732500Y-86432400D01*
X180732500Y-86432400D02*
X181919400Y-85245500D01*
%TO.N,Net-(D7-A)*%
X163686800Y-88262600D02*
X162569400Y-89380000D01*
X178532600Y-88262600D02*
X163686800Y-88262600D01*
X179770000Y-89500000D02*
X178532600Y-88262600D01*
X161620000Y-89380000D02*
X162569400Y-89380000D01*
%TO.N,GND*%
X148351000Y-87351000D02*
X146000000Y-85000000D01*
X154149000Y-87351000D02*
X148351000Y-87351000D01*
X155500000Y-86000000D02*
X154149000Y-87351000D01*
%TO.N,Net-(U1-CV)*%
X151801700Y-84698300D02*
X150500000Y-86000000D01*
X163262000Y-84698300D02*
X151801700Y-84698300D01*
X164115400Y-85551700D02*
X163262000Y-84698300D01*
X171488300Y-85551700D02*
X164115400Y-85551700D01*
X173040000Y-84000000D02*
X171488300Y-85551700D01*
%TO.N,Net-(D2-A)*%
X150450800Y-88370800D02*
X151460000Y-89380000D01*
X118910800Y-88370800D02*
X150450800Y-88370800D01*
X115040000Y-84500000D02*
X118910800Y-88370800D01*
%TO.N,Net-(D1-K)*%
X183200000Y-84200000D02*
X182000000Y-83000000D01*
X190760000Y-84200000D02*
X183200000Y-84200000D01*
X190960000Y-84000000D02*
X190760000Y-84200000D01*
X182960000Y-82040000D02*
X182000000Y-83000000D01*
X182960000Y-76000000D02*
X182960000Y-82040000D01*
X120096600Y-83298300D02*
X120298300Y-83500000D01*
X114527800Y-83298300D02*
X120096600Y-83298300D01*
X113701700Y-84124400D02*
X114527800Y-83298300D01*
X113701700Y-84500000D02*
X113701700Y-84124400D01*
X112500000Y-84500000D02*
X113701700Y-84500000D01*
X121500000Y-83500000D02*
X120298300Y-83500000D01*
X177230000Y-89500000D02*
X176028300Y-89500000D01*
X175198900Y-90329400D02*
X150491800Y-90329400D01*
X176028300Y-89500000D02*
X175198900Y-90329400D01*
X127931700Y-90375500D02*
X127931700Y-90000000D01*
X129091500Y-91535300D02*
X127931700Y-90375500D01*
X149285900Y-91535300D02*
X129091500Y-91535300D01*
X150491800Y-90329400D02*
X149285900Y-91535300D01*
X126730000Y-90000000D02*
X127931700Y-90000000D01*
%TO.N,Net-(D8-A)*%
X183000000Y-88500000D02*
X189000000Y-88500000D01*
X146380000Y-97000000D02*
X147327700Y-97947700D01*
X189000000Y-88500000D02*
X193500000Y-84000000D01*
X157487700Y-97392551D02*
X157487700Y-96617986D01*
X156932551Y-97947700D02*
X157487700Y-97392551D01*
X147327700Y-97947700D02*
X156932551Y-97947700D01*
X159324586Y-94781100D02*
X176718900Y-94781100D01*
X157487700Y-96617986D02*
X159324586Y-94781100D01*
X176718900Y-94781100D02*
X183000000Y-88500000D01*
%TD*%
M02*
