%TF.GenerationSoftware,KiCad,Pcbnew,10.0.0*%
%TF.CreationDate,2026-04-11T21:50:39-04:00*%
%TF.ProjectId,555 LED Chaser,35353520-4c45-4442-9043-68617365722e,rev?*%
%TF.SameCoordinates,Original*%
%TF.FileFunction,Soldermask,Bot*%
%TF.FilePolarity,Negative*%
%FSLAX46Y46*%
G04 Gerber Fmt 4.6, Leading zero omitted, Abs format (unit mm)*
G04 Created by KiCad (PCBNEW 10.0.0) date 2026-04-11 21:50:39*
%MOMM*%
%LPD*%
G01*
G04 APERTURE LIST*
G04 Aperture macros list*
%AMRoundRect*
0 Rectangle with rounded corners*
0 $1 Rounding radius*
0 $2 $3 $4 $5 $6 $7 $8 $9 X,Y pos of 4 corners*
0 Add a 4 corners polygon primitive as box body*
4,1,4,$2,$3,$4,$5,$6,$7,$8,$9,$2,$3,0*
0 Add four circle primitives for the rounded corners*
1,1,$1+$1,$2,$3*
1,1,$1+$1,$4,$5*
1,1,$1+$1,$6,$7*
1,1,$1+$1,$8,$9*
0 Add four rect primitives between the rounded corners*
20,1,$1+$1,$2,$3,$4,$5,0*
20,1,$1+$1,$4,$5,$6,$7,0*
20,1,$1+$1,$6,$7,$8,$9,0*
20,1,$1+$1,$8,$9,$2,$3,0*%
G04 Aperture macros list end*
%ADD10C,1.800000*%
%ADD11R,1.800000X1.800000*%
%ADD12C,2.000000*%
%ADD13C,1.295400*%
%ADD14R,1.295400X1.295400*%
%ADD15R,1.700000X1.700000*%
%ADD16C,1.700000*%
%ADD17C,1.600000*%
%ADD18C,1.650000*%
%ADD19RoundRect,0.412500X-0.412500X-0.412500X0.412500X-0.412500X0.412500X0.412500X-0.412500X0.412500X0*%
%ADD20RoundRect,0.250000X0.550000X-0.550000X0.550000X0.550000X-0.550000X0.550000X-0.550000X-0.550000X0*%
%ADD21RoundRect,0.250000X-0.550000X-0.550000X0.550000X-0.550000X0.550000X0.550000X-0.550000X0.550000X0*%
G04 APERTURE END LIST*
D10*
%TO.C,D6*%
X129270000Y-90000000D03*
D11*
X126730000Y-90000000D03*
%TD*%
D12*
%TO.C,C4*%
X155500000Y-86000000D03*
X150500000Y-86000000D03*
%TD*%
D13*
%TO.C,U2*%
X161620000Y-97000000D03*
X159080000Y-97000000D03*
X156540000Y-97000000D03*
X154000000Y-97000000D03*
X151460000Y-97000000D03*
X148920000Y-97000000D03*
X146380000Y-97000000D03*
X143840000Y-97000000D03*
X143840000Y-89380000D03*
X146380000Y-89380000D03*
X148920000Y-89380000D03*
X151460000Y-89380000D03*
X154000000Y-89380000D03*
X156540000Y-89380000D03*
X159080000Y-89380000D03*
D14*
X161620000Y-89380000D03*
%TD*%
D15*
%TO.C,J2*%
X153000000Y-104500000D03*
%TD*%
D16*
%TO.C,J1*%
X138265000Y-94000000D03*
D15*
X135725000Y-94000000D03*
%TD*%
D17*
%TO.C,R1*%
X141080000Y-90000000D03*
X133460000Y-90000000D03*
%TD*%
D18*
%TO.C,RV1*%
X138000000Y-85000000D03*
X135460000Y-85000000D03*
D19*
X132920000Y-85000000D03*
%TD*%
D17*
%TO.C,U1*%
X165420000Y-84000000D03*
X167960000Y-84000000D03*
X170500000Y-84000000D03*
X173040000Y-84000000D03*
X173040000Y-91620000D03*
X170500000Y-91620000D03*
X167960000Y-91620000D03*
D20*
X165420000Y-91620000D03*
%TD*%
D17*
%TO.C,R4*%
X156810000Y-99500000D03*
X149190000Y-99500000D03*
%TD*%
D11*
%TO.C,D2*%
X112500000Y-84500000D03*
D10*
X115040000Y-84500000D03*
%TD*%
D11*
%TO.C,D9*%
X182000000Y-83000000D03*
D10*
X184540000Y-83000000D03*
%TD*%
D11*
%TO.C,D8*%
X190960000Y-84000000D03*
D10*
X193500000Y-84000000D03*
%TD*%
D11*
%TO.C,D5*%
X121500000Y-83500000D03*
D10*
X124040000Y-83500000D03*
%TD*%
D11*
%TO.C,D1*%
X120500000Y-76500000D03*
D10*
X123040000Y-76500000D03*
%TD*%
D11*
%TO.C,D11*%
X154730000Y-81500000D03*
D10*
X157270000Y-81500000D03*
%TD*%
D11*
%TO.C,D12*%
X149230000Y-81500000D03*
D10*
X151770000Y-81500000D03*
%TD*%
D11*
%TO.C,D10*%
X182960000Y-76000000D03*
D10*
X185500000Y-76000000D03*
%TD*%
D21*
%TO.C,C3*%
X144000000Y-85000000D03*
D17*
X146000000Y-85000000D03*
%TD*%
D11*
%TO.C,D7*%
X177230000Y-89500000D03*
D10*
X179770000Y-89500000D03*
%TD*%
M02*
